<svg width="72" height="55" viewBox="0 0 72 55" fill="none" xmlns="http://www.w3.org/2000/svg">
<path d="M60.4915 4.98298C55.8581 2.85662 50.969 1.33899 45.946 0.467946C45.9005 0.460282 45.8538 0.466901 45.8122 0.486894C45.7706 0.506886 45.7362 0.539271 45.7138 0.579593C45.0841 1.69607 44.3874 3.15642 43.9006 4.2997C38.4862 3.47801 32.9788 3.47801 27.5643 4.2997C27.0213 3.02611 26.4071 1.78411 25.7244 0.579593C25.7015 0.539712 25.667 0.507701 25.6256 0.487773C25.5841 0.467844 25.5376 0.460932 25.4922 0.467946C20.468 1.33433 15.5778 2.85274 10.9467 4.98298C10.9071 4.9981 10.8739 5.02652 10.8529 5.06337C1.59062 18.9032 -0.950484 32.4037 0.295504 45.7344C0.29997 45.7969 0.340163 45.8595 0.389288 45.8996C5.78287 49.8949 11.8157 52.9453 18.2306 54.9208C18.2759 54.9351 18.3246 54.9345 18.3695 54.9193C18.4145 54.904 18.4534 54.8748 18.4807 54.8359C19.8562 52.9602 21.0798 50.9818 22.1338 48.9007C22.1558 48.8579 22.1633 48.8091 22.1552 48.7616C22.1472 48.7141 22.124 48.6705 22.0891 48.6372C22.0661 48.6154 22.0387 48.5987 22.0088 48.5881C20.0847 47.8487 18.2212 46.9602 16.4353 45.9309C16.3854 45.9026 16.3483 45.8563 16.3317 45.8014C16.3151 45.7465 16.3202 45.6874 16.346 45.6362C16.3612 45.6029 16.3842 45.5738 16.413 45.5513C16.7881 45.27 17.1632 44.9752 17.5205 44.6804C17.5521 44.6551 17.5899 44.6388 17.6301 44.6333C17.6702 44.6277 17.711 44.6333 17.7483 44.6492C29.4445 49.9904 42.1053 49.9904 53.6587 44.6492C53.6972 44.6325 53.7396 44.6266 53.7813 44.6321C53.823 44.6376 53.8624 44.6543 53.8953 44.6804C54.2526 44.9752 54.6278 45.27 55.0029 45.5513C55.0333 45.5735 55.0577 45.6029 55.074 45.6369C55.0902 45.6708 55.0978 45.7083 55.096 45.7459C55.0942 45.7835 55.0832 45.8201 55.0638 45.8524C55.0444 45.8847 55.0174 45.9116 54.985 45.9309C53.2032 46.9696 51.3373 47.857 49.4071 48.5837C49.3763 48.5948 49.3484 48.6126 49.3252 48.6357C49.3021 48.6589 49.2843 48.6868 49.2731 48.7176C49.2628 48.7475 49.2587 48.7791 49.261 48.8106C49.2633 48.842 49.272 48.8727 49.2865 48.9007C50.3583 50.9774 51.5865 52.9602 52.9352 54.8359C52.9624 54.8748 53.0014 54.904 53.0463 54.9193C53.0913 54.9345 53.14 54.9351 53.1853 54.9208C59.6109 52.9514 65.6535 49.9007 71.0534 45.8996C71.0804 45.8809 71.1029 45.8563 71.1191 45.8277C71.1354 45.7991 71.1449 45.7672 71.1471 45.7344C72.6388 30.3225 68.6507 16.9338 60.5808 5.06783C60.5727 5.04823 60.5605 5.03056 60.5451 5.01594C60.5298 5.00133 60.5115 4.9901 60.4915 4.98298ZM23.88 37.6154C20.3564 37.6154 17.458 34.3821 17.458 30.4163C17.458 26.4461 20.3028 23.2128 23.88 23.2128C27.484 23.2128 30.3555 26.4729 30.3019 30.4163C30.3019 34.3821 27.4572 37.6154 23.88 37.6154ZM47.6207 37.6154C44.1016 37.6154 41.1988 34.3821 41.1988 30.4163C41.1988 26.4461 44.0435 23.2128 47.6207 23.2128C51.2247 23.2128 54.1008 26.4729 54.0427 30.4163C54.0427 34.3821 51.2247 37.6154 47.6207 37.6154Z" fill="#FF0000"/>
</svg>
