<svg width="68" height="56" viewBox="0 0 68 56" fill="none" xmlns="http://www.w3.org/2000/svg">
<path d="M67.8461 6.69872C65.3601 7.80032 62.6895 8.54463 59.8819 8.88107C62.7788 7.14768 64.9461 4.41952 65.9793 1.20566C63.2577 2.82228 60.2789 3.96022 57.1726 4.56998C55.0837 2.3396 52.3168 0.861264 49.3016 0.3645C46.2864 -0.132264 43.1916 0.380332 40.4976 1.8227C37.8036 3.26508 35.6611 5.55653 34.4029 8.3413C33.1446 11.1261 32.8409 14.2483 33.539 17.2234C28.0241 16.9465 22.6291 15.5131 17.7041 13.0162C12.7791 10.5193 8.43414 7.0148 4.95121 2.73002C3.7603 4.78434 3.07553 7.16616 3.07553 9.70279C3.0742 11.9863 3.63654 14.2349 4.71267 16.249C5.78879 18.2631 7.34542 19.9805 9.24444 21.2487C7.04208 21.1786 4.88831 20.5835 2.96239 19.5129V19.6915C2.96217 22.8943 4.07003 25.9985 6.098 28.4775C8.12597 30.9564 10.9491 32.6574 14.0885 33.2917C12.0454 33.8447 9.90342 33.9261 7.82428 33.5299C8.71001 36.2857 10.4353 38.6956 12.7587 40.4221C15.0821 42.1486 17.8872 43.1054 20.7814 43.1584C15.8684 47.0152 9.80085 49.1073 3.55487 49.0981C2.44846 49.0984 1.34298 49.0337 0.244141 48.9045C6.58417 52.9809 13.9644 55.1444 21.5019 55.136C47.0171 55.136 60.9656 34.0033 60.9656 15.6752C60.9656 15.0797 60.9507 14.4783 60.9239 13.8829C63.6371 11.9208 65.9791 9.4911 67.8401 6.70766L67.8461 6.69872Z" fill="#FF0000"/>
</svg>
